<svg width="900" height="164" viewBox="0 0 900 164" fill="none" xmlns="http://www.w3.org/2000/svg">
<path fill-rule="evenodd" clip-rule="evenodd" d="M163.612 81.6937C163.612 126.812 126.987 163.387 81.8062 163.387C36.6259 163.387 0 126.812 0 81.6937C0 36.5755 36.6259 0 81.8062 0C126.987 0 163.612 36.5755 163.612 81.6937ZM89.3396 130.941C106.204 128.526 119.166 114.041 119.166 96.5317C119.166 79.0227 106.204 64.537 89.3396 62.1221C86.606 61.7307 84.3546 64.007 84.3546 66.7684V126.295C84.3546 129.056 86.606 131.333 89.3396 130.941ZM44.5476 63.9399C44.5476 46.431 57.5096 31.9453 74.3738 29.5304C77.1073 29.139 79.3587 31.4152 79.3587 34.1767L79.3587 93.7032C79.3587 96.4647 77.1073 98.7409 74.3738 98.3495C57.5096 95.9346 44.5476 81.4489 44.5476 63.9399Z" fill="white"/>
<path fill-rule="evenodd" clip-rule="evenodd" d="M278.244 33.6762C278.244 11.7803 264.139 0 246.316 0C228.365 0 214.389 11.7803 214.389 33.6762C214.389 55.4442 228.365 67.3525 246.316 67.3525C264.139 67.3525 278.244 55.5722 278.244 33.6762ZM259.908 33.6762C259.908 45.4565 255.164 51.8589 246.316 51.8589C237.469 51.8589 232.725 45.4565 232.725 33.6762C232.725 21.896 237.469 15.4936 246.316 15.4936C255.164 15.4936 259.908 21.896 259.908 33.6762ZM286.936 84.8949H304.631V58.3892H304.887C306.939 63.383 311.683 67.0964 318.607 67.0964C329.121 67.0964 337.969 58.9014 337.969 41.8712C337.969 24.0728 328.48 16.6461 318.735 16.6461C311.426 16.6461 306.81 20.8716 304.887 25.8654H304.502V17.2863H286.936V84.8949ZM304.246 41.8712C304.246 34.5726 307.195 30.219 312.068 30.219C316.94 30.219 319.761 34.5726 319.761 41.8712C319.761 49.1699 316.94 53.5235 312.068 53.5235C307.195 53.5235 304.246 49.0418 304.246 41.8712ZM393.27 50.5784C391.603 60.8221 382.82 67.3525 369.164 67.3525C353.392 67.3525 343.776 57.9091 343.776 41.9993C343.776 26.7617 353.521 16.6461 368.779 16.6461C383.653 16.6461 393.27 26.2175 393.27 41.8712V45.9687H361.214V46.737C361.214 51.4747 364.291 54.932 369.549 54.932C373.171 54.932 376.088 53.3634 377.114 50.5784H393.27ZM369.164 29.0666C364.836 29.0666 361.31 31.9796 361.214 36.2372H376.986C376.889 32.0116 373.556 29.0666 369.164 29.0666ZM418.375 38.7981C418.407 33.9323 421.163 30.9873 425.555 30.9873C430.011 30.9873 432.639 33.9323 432.607 38.7981V66.4562H450.302V35.0848C450.334 24.3929 443.57 16.6461 433.12 16.6461C425.876 16.6461 420.138 20.4234 417.99 26.6337H417.477V17.2863H400.68V66.4562H418.375V38.7981ZM535.1 33.6762C535.1 54.1637 522.406 66.4562 502.403 66.4562H477.143V0.896326H502.146C522.406 0.896326 535.1 13.1888 535.1 33.6762ZM501.249 16.0058H494.966V51.3467H501.762C511.507 51.3467 517.148 47.3772 517.148 33.6762C517.148 19.9753 511.507 16.0058 501.249 16.0058ZM557.512 67.2244C563.923 67.2244 568.763 65.0477 571.744 59.5416H572.129V66.4562H588.67V32.7799C588.67 23.6886 580.047 16.6461 565.974 16.6461C551.261 16.6461 544.016 24.3288 543.407 33.2921H559.691C560.108 30.251 562.352 28.8105 565.718 28.8105C568.795 28.8105 570.975 30.219 570.975 32.7799V32.908C570.975 35.757 567.834 36.6533 559.563 37.2615C549.402 37.9978 541.484 42.0953 541.484 52.8832C541.484 62.6788 548.087 67.2244 557.512 67.2244ZM563.282 56.0844C560.268 56.0844 558.153 54.6119 558.153 51.8589C558.153 49.3299 559.948 47.3772 564.051 46.737C566.872 46.2888 569.244 45.7126 571.103 44.9443V49.0418C571.103 53.5235 567.289 56.0844 563.282 56.0844ZM618.214 17.2863H626.677V30.0909H618.214V50.6424C618.214 52.6912 619.24 53.7155 621.548 53.7155C622.606 53.7155 624.337 53.3634 625.01 53.2033L627.575 65.6239C625.972 66.104 622.991 66.9363 618.984 67.1604C606.77 67.8327 600.391 62.6148 600.52 52.307V30.0909H594.237V17.2863H600.52V5.506H618.214V17.2863ZM647.807 67.2244C654.218 67.2244 659.058 65.0477 662.04 59.5416H662.424V66.4562H678.965V32.7799C678.965 23.6886 670.342 16.6461 656.269 16.6461C641.556 16.6461 634.311 24.3288 633.702 33.2921H649.987C650.403 30.251 652.647 28.8105 656.013 28.8105C659.09 28.8105 661.27 30.219 661.27 32.7799V32.908C661.27 35.757 658.129 36.6533 649.858 37.2615C639.697 37.9978 631.779 42.0953 631.779 52.8832C631.779 62.6788 638.382 67.2244 647.807 67.2244ZM653.577 56.0844C650.564 56.0844 648.448 54.6119 648.448 51.8589C648.448 49.3299 650.243 47.3772 654.346 46.737C657.167 46.2888 659.539 45.7126 661.398 44.9443V49.0418C661.398 53.5235 657.584 56.0844 653.577 56.0844ZM246.06 90.1448C262.6 90.1448 274.525 99.3641 275.936 115.626H257.856C257.343 109.672 253.433 105.638 246.573 105.638C237.597 105.638 232.725 112.425 232.725 123.821C232.725 135.857 237.757 142.004 246.444 142.004C252.984 142.004 256.959 138.514 257.856 132.912L275.936 133.04C275.038 144.18 265.293 157.497 246.06 157.497C227.98 157.497 214.389 145.621 214.389 123.821C214.389 101.925 228.365 90.1448 246.06 90.1448ZM304.512 91.0411H286.817V156.601H304.512V91.0411ZM362.954 132.144C362.954 147.254 353.466 157.497 337.438 157.497C321.41 157.497 311.922 147.254 311.922 132.144C311.922 117.035 321.41 106.791 337.438 106.791C353.466 106.791 362.954 117.035 362.954 132.144ZM330.001 132.016C330.001 139.731 332.822 144.437 337.566 144.437C342.054 144.437 344.875 139.731 344.875 132.016C344.875 124.301 342.054 119.595 337.566 119.595C332.822 119.595 330.001 124.301 330.001 132.016ZM402.252 135.089C402.284 139.955 399.463 142.9 395.071 142.9C390.616 142.9 388.051 139.955 388.019 135.089V107.431H370.324V138.802C370.356 149.558 377.152 157.241 387.506 157.241C394.847 157.241 400.489 153.528 402.637 147.254H403.149V156.601H419.947V107.431H402.252V135.089ZM460.678 148.534C458.627 153.528 453.883 157.241 446.959 157.241C436.444 157.241 427.597 149.046 427.597 132.016C427.597 114.218 437.085 106.791 446.83 106.791C454.139 106.791 458.755 111.016 460.678 116.01H460.935V91.0411H478.63V156.601H461.063V148.534H460.678ZM445.805 132.016C445.805 139.315 448.626 143.668 453.498 143.668C458.37 143.668 461.32 139.187 461.32 132.016C461.32 124.717 458.37 120.364 453.498 120.364C448.626 120.364 445.805 124.717 445.805 132.016ZM540.812 111.529H557.866C557.801 98.6599 547.864 90.1448 531.965 90.1448C516.353 90.1448 505.326 98.5318 505.422 111.016C505.39 121.26 512.507 126.958 524.143 129.455L530.682 130.864C537.991 132.464 540.491 134.289 540.555 137.266C540.491 140.499 537.542 142.772 531.836 142.772C525.008 142.772 520.969 139.571 520.681 133.553H503.756C503.82 150.007 514.975 157.369 532.093 157.369C548.73 157.369 558.699 150.199 558.763 137.266C558.699 127.278 552.737 120.268 538.247 117.163L532.862 116.01C526.643 114.698 523.854 112.873 524.015 109.736C524.047 106.855 526.451 104.742 531.965 104.742C537.735 104.742 540.459 107.271 540.812 111.529ZM613.688 140.723C612.021 150.967 603.238 157.497 589.582 157.497C573.81 157.497 564.194 148.054 564.194 132.144C564.194 116.907 573.939 106.791 589.197 106.791C604.071 106.791 613.688 116.362 613.688 132.016V136.113H581.632V136.882C581.632 141.619 584.709 145.077 589.966 145.077C593.589 145.077 596.506 143.508 597.532 140.723H613.688ZM589.582 119.211C585.254 119.211 581.728 122.124 581.632 126.382H597.403C597.307 122.156 593.973 119.211 589.582 119.211ZM621.098 156.601H638.792V130.992C638.792 125.358 642.671 121.644 647.896 121.644C649.723 121.644 652.673 121.932 654.436 122.541V107.463C653.025 107.047 651.487 106.791 649.948 106.791C644.691 106.791 640.588 109.864 638.792 116.778H638.28V107.431H621.098V156.601ZM710.87 109.446C710.321 108.811 709.815 108.138 709.355 107.431H692.956L685.006 139.955H684.493L676.543 107.431H657.951L674.492 156.601H695.007L710.87 109.446ZM716.77 156.601H734.465V113.154C731.666 114.86 728.376 115.843 724.857 115.843C721.956 115.843 719.212 115.176 716.77 113.986V156.601ZM791.112 136.113C790.92 149.142 781.977 157.497 767.391 157.497C751.363 157.497 741.875 147.254 741.875 132.144C741.875 117.035 751.363 106.791 767.391 106.791C781.88 106.791 791.016 115.114 791.112 127.919H774.7C774.219 122.765 771.558 119.98 767.648 119.98C763 119.98 759.954 123.949 759.954 132.016C759.954 140.083 763 144.052 767.648 144.052C771.526 144.052 774.315 141.267 774.7 136.113H791.112ZM822.196 157.497C835.851 157.497 844.635 150.967 846.302 140.723H830.145C829.12 143.508 826.203 145.077 822.58 145.077C817.323 145.077 814.246 141.619 814.246 136.882V136.113H846.302V132.016C846.302 116.362 836.685 106.791 821.811 106.791C806.552 106.791 796.807 116.907 796.807 132.144C796.807 148.054 806.424 157.497 822.196 157.497ZM814.246 126.382C814.342 122.124 817.868 119.211 822.196 119.211C826.587 119.211 829.921 122.156 830.017 126.382H814.246ZM875.381 106.791C889.614 106.791 898.269 113.033 898.718 123.437H882.433C882.177 120.428 879.26 118.571 875.766 118.571C872.72 118.571 870.188 119.724 870.252 121.772C870.188 123.213 871.246 124.557 874.996 125.23L884.998 127.022C895.063 128.847 899.936 133.072 900 140.339C899.936 150.871 889.902 157.497 876.279 157.497C861.212 157.497 852.493 150.807 851.532 140.723H869.098C869.579 143.86 872.4 145.589 876.407 145.589C879.645 145.589 881.985 144.437 882.049 142.388C881.985 140.531 880.254 139.507 876.407 138.802L867.688 137.266C857.654 135.505 852.622 130.543 852.686 122.797C852.622 112.553 861.309 106.791 875.381 106.791Z" fill="white"/>
<ellipse rx="11.2837" ry="11.2681" transform="matrix(1 0 0 -1 724.972 97.3012)" fill="white"/>
</svg>
