<?xml version="1.0" standalone="no"?>
<!DOCTYPE svg PUBLIC "-//W3C//DTD SVG 20010904//EN"
 "http://www.w3.org/TR/2001/REC-SVG-20010904/DTD/svg10.dtd">
<svg version="1.0" xmlns="http://www.w3.org/2000/svg"
 width="512.000000pt" height="512.000000pt" viewBox="0 0 512.000000 512.000000"
 preserveAspectRatio="xMidYMid meet">
<metadata>
Created by potrace 1.14, written by Peter Selinger 2001-2017
</metadata>
<g transform="translate(0.000000,512.000000) scale(0.100000,-0.100000)"
fill="#000000" stroke="none">
<path d="M2369 5116 c-2 -2 -33 -6 -69 -10 -58 -5 -191 -26 -274 -41 -60 -12
-244 -65 -331 -95 -695 -246 -1270 -812 -1531 -1507 -35 -94 -97 -302 -108
-360 -2 -15 -9 -53 -15 -83 -29 -159 -36 -244 -35 -470 0 -113 4 -234 8 -270
5 -36 10 -72 11 -80 23 -192 108 -485 195 -678 176 -391 434 -721 771 -984
333 -259 758 -445 1154 -504 22 -3 51 -8 65 -10 120 -20 464 -26 614 -11 623
62 1234 376 1651 849 131 148 254 323 329 468 22 41 47 89 56 105 94 172 207
539 236 770 3 28 8 61 10 75 9 49 11 456 3 525 -15 133 -21 175 -34 235 -3 14
-10 46 -15 71 -23 115 -94 335 -148 461 -199 456 -507 827 -924 1112 -53 36
-100 66 -104 66 -4 0 -15 6 -23 14 -20 18 -257 137 -331 166 -142 57 -380 128
-490 146 -14 2 -38 6 -55 9 -16 3 -50 8 -75 11 -25 3 -56 8 -70 11 -28 5 -466
14 -471 9z m103 -1013 c19 -24 20 -2099 1 -2131 -13 -21 -21 -23 -76 -21 -130
5 -288 51 -426 125 -489 260 -703 842 -500 1357 29 73 99 207 124 234 5 6 21
25 34 42 165 216 457 381 721 407 36 3 66 7 68 9 7 6 42 -8 54 -22z m360
-1018 c314 -55 578 -241 755 -534 18 -29 33 -56 33 -60 0 -3 6 -17 13 -31 17
-32 57 -145 63 -173 2 -12 10 -54 17 -92 29 -152 14 -360 -38 -520 -102 -311
-359 -577 -660 -683 -160 -56 -326 -80 -360 -52 -13 11 -15 158 -15 1074 0
813 3 1065 12 1074 16 16 77 15 180 -3z"/>
</g>
</svg>
